<svg width="11" height="3" fill="none" xmlns="http://www.w3.org/2000/svg"><path opacity=".3" d="M.9 2.5a.4.4 0 0 1-.28-.1.4.4 0 0 1-.1-.27V.98c0-.1.04-.2.1-.26A.37.37 0 0 1 .9.62h1.16c.1 0 .19.03.25.1.08.07.11.15.11.26v1.15c0 .1-.03.2-.1.27a.35.35 0 0 1-.26.1H.89Zm4.02 0a.4.4 0 0 1-.27-.1.4.4 0 0 1-.1-.27V.98c0-.1.04-.2.1-.26a.37.37 0 0 1 .27-.1h1.16c.1 0 .19.03.25.1.08.07.11.15.11.26v1.15c0 .1-.03.2-.1.27a.35.35 0 0 1-.26.1H4.92Zm4.04 0a.4.4 0 0 1-.28-.1.4.4 0 0 1-.1-.27V.98c0-.1.04-.2.1-.26a.37.37 0 0 1 .28-.1h1.15c.1 0 .19.03.25.1.08.07.12.15.12.26v1.15c0 .1-.04.2-.12.27a.35.35 0 0 1-.25.1H8.96Z" fill="#444"/></svg>